<?xml version="1.0" encoding="utf-8" ?>
<svg baseProfile="tiny" height="100%" version="1.2" viewBox="-1,-1,38.96,18.8" width="100%" xmlns="http://www.w3.org/2000/svg" xmlns:ev="http://www.w3.org/2001/xml-events" xmlns:xlink="http://www.w3.org/1999/xlink"><defs /><g fill="currentColor" stroke="currentColor" stroke-linecap="round" stroke-linejoin="round" stroke-width=".4"><path d="M 0 9 h 1.2 l 2.8 -6 v 6 h 1.2 v -9 h -1.2 z" /><path d="M 7.2 9 m 0 -2.6 a 2.6 2.6 0 0 0 5.2 0 h -1.2 a 1.4 1.4 0 0 1 -2.8 0 v -3.8 a 1.4 1.4 0 0 1 2.8 0 h 1.2 a 2.6 2.6 0 0 0 -5.2 0 z" /><path d="M 13.6 9 h 1.2 l 1 -4 v 4 h 1.2 l 1 -4 v 4 h 1.2 v -9 h -1.2 l -1 4 v -4 h -1.2 z" /><path d="M 0 16.8 h 0.84 v -2.73 h 1.96 v 2.73 h 0.84 v -6.3 h -0.84 v 2.73 h -1.96 v -2.73 h -0.84 z" /><path d="M 5.04 16.8 m 0.0 -1.82 a 1.82 1.82 0 0 0 3.64 0.0 v -2.66 a 1.82 1.82 0 0 0 -3.64 0.0 z" /><path d="M 9.52 16.8 h 0.84 l 0.7 -2.8 v 2.8 h 0.84 l 0.7 -2.8 v 2.8 h 0.84 v -6.3 h -0.84 l -0.7 2.8 v -2.8 h -0.84 z" /><path d="M 14.84 16.8 h 3.64 v -0.84 h -2.8 v -1.89 h 2.8 v -0.84 h -2.8 v -1.89 h 2.8 v -0.84 h -3.64 z" /><path d="M 19.88 16.8 h 0.84 v -2.66 h 0.98 a 1.82 1.82 0 0 0 0.0 -3.64 h -1.82 z" /><path d="M 23.24 16.8 h 0.84 l 1.96 -4.2 v 4.2 h 0.84 v -6.3 h -0.84 z" /><path d="M 28.28 16.8 m 0.0 -1.82 a 1.82 1.82 0 0 0 1.82 1.82 h 1.82 v -2.66 h -0.84 v 1.82 h -0.98 a 0.98 0.98 0 0 1 -0.98 -0.98 v -2.66 a 0.98 0.98 0 0 1 1.96 0.0 h 0.84 a 1.82 1.82 0 0 0 -3.64 0.0 z" /><path d="M 33.32 16.8 h 3.64 v -0.84 h -2.8 v -1.89 h 2.8 v -0.84 h -2.8 v -1.89 h 2.8 v -0.84 h -3.64 z" /></g></svg>